<?xml version="1.0" encoding="UTF-8"?>
<svg width="210mm" height="297mm" version="1.1" viewBox="0 0 210 297" xmlns="http://www.w3.org/2000/svg"><path d="m49.134 267.17c-6.4875-8.3418 2.6716-20.451 3.2698-30.309 2.871-13.121 6.3444-26.133 8.9103-39.298-17.513-0.5478-32.353-12.552-40.632-27.397-12.759-21.521-14.206-47.835-11.689-72.202 3.6123-24.447 16.966-50.475 41.757-58.777 19.643-5.6667 40.385-2.8959 60.544-3.6073 20.464 0.6039 43.08-2.4185 60.943 9.7961 20.577 14.604 30.432 40.432 30.603 65.063 0.76757 24.871-3.3903 51.862-20.929 70.75-8.7644 10.321-21.574 16.421-35.126 16.695-12.307 1.605-25.033-1.393-37.083 1.8321-21.69 9.6948-35.16 30.778-46.858 50.487-4.5786 4.8706-5.4833 17.82-13.711 16.967zm15.411-37.24c12.59-17.964 28.91-36.488 51.586-40.577 0.37115-9.3326-5.2723-21.347 2.4633-29.083 10.16-3.7676 21.629-1.0516 32.297-2.4634 7.3448-2.6022 2.0303-15.526 9.1214-20.79-0.60691-9.0027 14.034-12.057 4.8125-19.889-9.4391-6.7719-4.9666-19.08-9.8401-28.256-10.712-18.121-30.834-31.174-52.322-30.415-14.262-0.8514-28.78 3.5174-39.541 13.061-8.068 6.58-16.174 14.784-18.137 25.432-6.3243 20.71 0.37824 45.778 19.045 57.877 11.006 4.0686 12.486 16.516 9.7499 26.489-2.5094 17.01-7.6927 33.584-10.824 50.392l0.31154-0.13835zm84.099-40.816c9.9443-1.2982 19.361-5.3748 26.03-13.039 17.919-19.487 21.644-48.003 18.926-73.408-1.9734-21.156-12.485-43.457-32.297-53.139-20.035-7.8969-41.93-4.7252-62.93-5.5433-18.477 0.26579-38.753-1.4478-55.126 8.6529-19.57 14.754-27.667 40.285-26.534 64.071 0.06628 23.321 5.1173 49.853 25.221 64.403 5.621 3.4478 19.564 13.551 22.773 3.6227 3.0892-10.597 3.3966-22.122-9.0405-26.126-19.708-15.272-24.619-43.329-17.578-66.254 9.1063-25.991 36.814-43.283 64.057-42.182 24.969-0.46752 49.942 14.327 60.423 37.137 4.3588 9.2453 1.1311 20.788 10.18 27.757 7.2 6.6389 2.906 13.997-3.4034 18.544-3.963 9.0517-7.623 17.779-8.4272 27.413-7.9308 8.1473-20.52 3.8536-30.649 4.9964-13.063-0.76462-5.5447 15.992-5.2159 23.459 7.663 1.1234 15.841 0.16679 23.59-0.3657z" fill="#500f6c" stroke-width=".35278"/></svg>
